<?xml version="1.0" encoding="utf-8"?>
<!-- Generator: Adobe Illustrator 17.1.0, SVG Export Plug-In . SVG Version: 6.00 Build 0)  -->
<!DOCTYPE svg PUBLIC "-//W3C//DTD SVG 1.1//EN" "http://www.w3.org/Graphics/SVG/1.1/DTD/svg11.dtd">
<svg version="1.1" id="Layer_1" xmlns="http://www.w3.org/2000/svg" xmlns:xlink="http://www.w3.org/1999/xlink" x="0px" y="0px"
	 viewBox="0 0 2626 1166" style="enable-background:new 0 0 2626 1166;" xml:space="preserve">
<style type="text/css">
	.st0{stroke:#000000;stroke-miterlimit:10;}
</style>
<g>
	<path class="st0" d="M596.2,870.8c-11,2.6-25.3,3.3-36.4,0.7c-11-2.6-21.5-6.6-31.5-11.8c-21-10.5-40.3-24.2-57.9-41
		c-17.6-16.8-34-34.1-49.2-52c-16.8-18.4-32.6-37.4-47.3-57.1c-14.7-19.7-29.4-39.5-44.1-59.5c-7.4-10.5-14.7-20.6-22.1-30.3
		c-7.3-9.7-15.2-19.6-23.6-29.5c-5.8-6.8-12.1-13.9-18.9-21.3c-6.3,8.4-13.1,16.8-20.5,25.2c-7.3,9.5-15.2,18.6-23.6,27.6
		c-8.4,8.9-17.3,17.3-26.8,25.2c-8.4,6.8-17.3,13.3-26.8,19.3c-9.4,6-19.4,10.4-29.9,13c-10.5,2.6-21.1,2.5-31.9-0.4
		c-10.8-2.9-19.3-8.8-25.6-17.7c-6.8-9.5-9.6-20-8.3-31.5c1.3-11.6,4.1-22,8.3-31.5c7.9-17.8,19.7-33.3,35.4-46.5
		c15.7-13.1,33.3-21.3,52.8-24.4c11.6-2.1,22.8-2.2,33.9-0.4c11,1.8,21.8,4.9,32.3,9.1c7.9,3.2,15.8,7.6,23.6,13.4l25.2-41
		c22-36.2,42.1-73.4,60.3-111.4c18.1-38.1,39-74.9,62.6-110.7c11-16.8,23.1-33.1,36.2-48.8c13.1-15.8,28.1-29.4,44.9-41
		c19.4-14.2,40.4-26.1,63-35.8c22.6-9.7,45.7-16.7,69.3-20.9c11-2.1,22.4-3.3,34.3-3.5c11.8-0.2,23.4,0.8,34.6,3.2
		c11.3,2.4,21.9,6.3,31.9,11.8s18.6,13,26,22.4c14.7,18.4,22.7,39,24,61.8c1.3,22.8-3.8,44.2-15.4,64.2
		c-12.1,20-27.6,37.4-46.5,52.4c-18.9,15-38.6,27.4-59.1,37.4c-20.5,10-43.1,18-67.7,24c-24.7,6.1-48.3,5.1-70.9-2.8
		c-15.2-5.2-26.8-14.2-34.6-26.8c-4.2-6.8-7.1-14.2-8.7-22.1c0-1-0.1-2-0.4-2.8c-0.3-0.8,0.1-1.7,1.2-2.8c1.1-1,2.2-1.3,3.5-0.8
		c1.3,0.5,2.2,1.6,2.8,3.2c2.1,12.6,6.9,22.7,14.6,30.3c7.6,7.6,16.5,13.1,26.8,16.5c10.2,3.4,21.3,5.1,33.1,5.1
		c11.8,0,23-1,33.5-3.2c23.1-4.2,45.3-11.7,66.6-22.4c21.3-10.7,40.8-23.7,58.7-39c8.4-6.8,16.4-14.7,24-23.6
		c7.6-8.9,14.2-18.2,19.7-28c5.5-9.7,9.6-20.1,12.2-31.1c2.6-11,2.9-22.3,0.8-33.9c-1.6-10.5-4.6-20.9-9.1-31.1
		c-4.5-10.2-10.4-19.3-17.7-27.2c-16.3-15.2-36.5-24.1-60.6-26.8c-23.6-2.6-47.1-0.5-70.5,6.3c-23.4,6.8-45.3,15.5-65.8,26
		c-10.5,5.8-20.5,11.9-29.9,18.5c-9.4,6.6-18.6,14-27.6,22.4c-7.4,7.4-14.3,15-20.9,22.8c-6.6,7.9-12.7,16.3-18.5,25.2
		c-13.1,18.9-25.2,38.3-36.2,58.3c-11,20-21.7,40.2-31.9,60.6c-10.2,20.5-20.6,40.8-31.1,61c-10.5,20.2-22.1,40.1-34.7,59.5
		c-5.8,9.5-11.8,18.8-18.1,28s-12.9,18.2-19.7,27.2l7.1,7.1c17.9,16.8,34.5,34.7,50,53.6c15.5,18.9,30.8,38.1,46.1,57.5
		c14.7,19.4,29.4,38.6,44.1,57.5c14.7,18.9,30.2,37.5,46.5,55.9c7.3,7.9,15.4,16.2,24,24.8s17.8,16.7,27.6,24
		c9.7,7.3,20,13.3,30.7,17.7c10.8,4.5,21.9,6.7,33.5,6.7c0,0,7.2,0.9,12.3-6.5C597.6,853.7,596.2,870.8,596.2,870.8z M201.5,625
		c18.4-20,35.7-42.5,52-67.7c-6.8-5.2-13.4-9.2-19.7-11.8c-17.9-8.4-35.4-12.6-52.8-12.6c-12.1,0.5-23.2,2.9-33.5,7.1
		c-10.2,4.2-19.8,10-28.7,17.3c-13.6,11-24.1,24.2-31.5,39.4c-4.7,9.5-7.9,20.1-9.4,31.9c-1.6,11.8,1.6,22.2,9.4,31.1
		c7.9,8.9,17.5,13.7,28.7,14.2c11.3,0.5,21.9-1.6,31.9-6.3c10.5-4.7,20.1-10.9,28.7-18.5C185.3,641.4,193.6,633.4,201.5,625z"/>
	<path class="st0" d="M498.4,485.2c-15.2,17.3-27,36.2-35.4,56.7c-4.7,10-8.8,20.8-12.2,32.3c-3.4,11.6-4.6,22.8-3.5,33.9
		c1.1,6.8,3.3,11.9,6.7,15.4c3.4,3.4,7.5,5.5,12.2,6.3c4.7,0.8,9.8,0.4,15.4-1.2c5.5-1.6,10.6-3.7,15.3-6.3
		c8.4-5.2,16-11.7,22.8-19.3c6.8-7.6,12.9-15.9,18.1-24.8c5.2-8.9,10-18.1,14.2-27.6c4.2-9.4,8.1-18.6,11.8-27.6
		c3.7-10,6.9-20.6,9.8-31.9c2.9-11.3,4.6-22.2,5.1-32.7c0-4.2-0.7-8.8-2-13.8c-1.3-5-4.6-8-9.8-9.1c-5.3-1-10.2-0.2-15,2.4
		c-1.6,0.5-4.1,2-7.5,4.3c-3.4,2.4-5.9,3-7.5,2c-2.6-1-3.4-2.2-2.4-3.5c1-1.3,2.6-2.6,4.7-3.9c2.1-1.3,4.3-2.4,6.7-3.2
		s3.8-1.2,4.3-1.2c5.2-2.1,10.6-3.4,16.2-3.9c5.5-0.5,10.4,1.3,14.6,5.5c8.4,7.4,13,17.6,13.8,30.7c0.8,13.1,0.4,24.7-1.2,34.7
		c-2.6,20.5-9.7,40.4-21.3,59.9c-11.6,19.4-25,36-40.2,49.6c-7.9,7.4-16.5,13.7-26,18.9c-9.5,5.3-19.7,8.4-30.7,9.5
		c-12.6,1.1-21.7-2.5-27.2-10.6c-5.5-8.1-7.7-18-6.7-29.5c1.1-12.1,3.5-23.7,7.5-35.1c3.9-11.3,8.8-22.2,14.6-32.7
		c5.8-10.5,11.9-20.5,18.5-29.9c6.6-9.4,14-18.4,22.4-26.8c10.5-11,21.5-19.2,33.1-24.4c6.3-2.6,12.1-3.9,17.3-3.9
		c2.1,0.5,3.3,1.8,3.5,3.9c0.2,2.1-0.9,3.2-3.5,3.2c-11-0.5-21.4,3-31.1,10.6C514.3,469.6,505.7,477.4,498.4,485.2z"/>
	<path class="st0" d="M785.1,361.6c2.6-0.5,4.2,0.3,4.7,2.4c0.5,2.1,0.4,4.9-0.4,8.3c-0.8,3.4-1.7,6.7-2.8,9.8
		c-1.1,3.2-1.6,5.3-1.6,6.3c-6.8,23.6-15,46.5-24.4,68.5c-9.4,22-20.2,43.6-32.3,64.6c-5.8,10.5-11.8,20.6-18.1,30.3
		c-6.3,9.7-13.1,19-20.5,28c-7.4,8.9-14.8,17.7-22.4,26.4c-7.6,8.7-16.2,16.1-25.6,22.4c-3.2,2.1-6.6,4.1-10.2,5.9
		c-3.7,1.8-7.5,3-11.4,3.5c-3.9,0.5-7.6,0.1-11-1.2c-3.4-1.3-6.2-4.3-8.3-9.1c-5.2-9.4-7.1-20.5-5.5-33.1
		c1.6-12.6,3.7-23.9,6.3-33.9c2.6-13.1,5.9-26.1,9.8-39c3.9-12.9,8.3-25.3,13-37.4c2.6-5.8,5.2-11.8,7.9-18.1
		c2.6-6.3,5.5-12.3,8.7-18.1c1-2.1,2.1-4.6,3.2-7.5c1-2.9,2.6-4.9,4.7-5.9c2.1-1.6,3.9-1.6,5.5,0c1.6,1.6,1.8,3.4,0.8,5.5
		c-13.1,18.9-23.6,39.6-31.5,62.2s-13.9,45.2-18.1,67.7c-0.5,2.6-1.2,7.2-2,13.8c-0.8,6.6-1.2,13.3-1.2,20.1s0.9,12.9,2.8,18.1
		c1.8,5.3,5.4,7.9,10.6,7.9c4.2,0.5,8.4-0.4,12.6-2.8c4.2-2.4,8.1-5.4,11.8-9.1c3.7-3.7,7.1-7.5,10.2-11.4c3.2-3.9,5.8-7.5,7.9-10.6
		c11-15.2,20.9-31.2,29.5-48c8.7-16.8,17.4-33.6,26.4-50.4c7.4-13.6,14.4-27.3,21.3-41c6.8-13.6,13.6-27.3,20.5-41l15-29.9l7.9-15
		c1-1.6,2-3.4,2.8-5.5C782.3,363.4,783.5,362.1,785.1,361.6z"/>
	<path class="st0" d="M829.2,499.4c1.6-1.6,3.3-1.8,5.1-0.8c1.8,1.1,2.2,2.6,1.2,4.7c-1.6,4.2-2.8,9.3-3.5,15.3
		c-0.8,6.1-0.8,11.8,0,17.3c0.8,5.5,2.9,10.2,6.3,14.2c3.4,3.9,8.3,5.9,14.6,5.9c5.2,0,10.4-1.2,15.3-3.5c5-2.4,9.6-5.4,13.8-9.1
		c4.2-3.7,8.1-7.6,11.8-11.8c3.7-4.2,6.8-8.4,9.4-12.6c5.8-8.9,11-19.4,15.8-31.5c4.7-12.1,5-23.4,0.8-33.9
		c-2.6-7.3-7.3-12.1-14.2-14.2c-6.8-2.1-13.6-2.4-20.5-0.8c-11,3.2-20.9,9.2-29.5,18.1c-8.7,8.9-16.2,17.9-22.4,26.8
		c-6.8,9.4-13.1,19.3-18.9,29.5c-5.8,10.2-10.8,20.6-15,31.1c-2.1,4.7-4.1,9.8-5.9,15.3c-1.8,5.5-3.3,11-4.3,16.5
		c-1.1,5.5-1.3,11.2-0.8,16.9c0.5,5.8,2.1,11,4.7,15.8c5.2,10,13.5,16,24.8,18.1c11.3,2.1,21.9,2.6,31.9,1.6
		c23.6-3.2,45.3-12.2,65-27.2c19.7-15,36.9-31.1,51.6-48.4c7.3-7.9,14.4-17.1,21.3-27.6l8.7-15c1-3.7,2.4-6,3.9-7.1
		c1.1-1.1,2.2-1.2,3.5-0.4c1.3,0.8,2,2,2,3.5c0.5,2.1-0.1,4.2-2,6.3c-1.8,2.1-3.3,3.9-4.3,5.5c-2.6,4.7-5.8,9.4-9.5,14.2
		c-3.7,5.2-7.5,10.2-11.4,15c-3.9,4.7-8,9.5-12.2,14.2c-14.7,16.3-31.6,31.5-50.8,45.7c-19.2,14.2-40.3,23.4-63.4,27.6
		c-10,2.1-20.5,2.5-31.5,1.2c-11-1.3-20.7-5.1-29.1-11.4c-9.4-7.3-15.5-16.8-18.1-28.4c-2.6-11.5-3.2-22.8-1.6-33.9
		c2.6-21,9.9-40.8,21.7-59.5c11.8-18.6,25.8-34.5,42.1-47.6c5.2-4.7,12.1-9.5,20.5-14.2c8.4-4.7,16.8-8.1,25.2-10.2
		c8.4-2.1,16.5-2.1,24.4,0c7.9,2.1,14.2,7.4,18.9,15.8c5.2,9.4,6.4,19.6,3.5,30.3c-2.9,10.8-6.4,20.6-10.6,29.5
		c-4.7,8.9-10.6,17.6-17.7,26c-7.1,8.4-15.1,15.5-24,21.3c-8.9,5.8-18.3,8.2-28,7.1c-9.7-1.1-16.4-7.1-20.1-18.1
		c-1.6-5.2-2.5-10.5-2.8-15.7c-0.3-5.2,0.1-10.2,1.2-15c0-2.1,0.1-4.5,0.4-7.1C826.7,502.3,827.6,500.5,829.2,499.4z"/>
	<path class="st0" d="M1445.9,122.2c2.1,23.6,0.3,46.7-5.5,69.3c-5.8,22.6-14.2,44.1-25.2,64.6c-22.1,39.4-51.3,73.5-87.8,102.4
		c-36.5,28.9-76.8,48.3-120.9,58.3c-24.2,5.8-49.1,7.9-74.8,6.3c-25.7-1.6-50.9-6.6-75.6-15c-5.2,12.1-10.5,24.2-15.7,36.2
		c-5.3,12.1-10.2,24.2-15,36.2c-7.4,17.3-14.2,34.8-20.5,52.4s-12.9,35-19.7,52.4l-8.7,23.6l-7.1,18.9c-1,1.1-1.7,2.8-2,5.1
		c-0.3,2.4-1.2,4.1-2.8,5.1c-4.2,1.6-6.2,0.5-5.9-3.2c0.3-3.7,0.7-6.3,1.2-7.9c7.9-32,16.9-63.9,27.2-95.7
		c10.2-31.8,21.4-63.1,33.5-94.1l14.2-37c-16.3-7.3-31.4-16.1-45.3-26.4c-13.9-10.2-26.6-22.2-38.2-35.8c-3.2-4.2-6.3-8.5-9.5-13
		c-3.2-4.5-6-8.8-8.7-13c-0.5-1.6-1.4-3.3-2.8-5.1c-1.3-1.8-1.7-3.5-1.2-5.1c1.1-2.1,2.4-3.2,3.9-3.2c1.6,0,2.9,0.8,3.9,2.4
		c10.5,21.5,24.4,39.9,41.7,55.1c17.3,15.2,37,27.8,59.1,37.8c13.6-33.1,28.9-65.6,45.7-97.7c16.8-32,35.9-62.5,57.5-91.4
		c14.2-18.4,29.4-36.1,45.7-53.2s33.6-33,52-47.7c17.9-14.2,37-27.7,57.5-40.6c20.5-12.9,42.5-21.1,66.2-24.8
		c11.6-1.6,22.8-0.9,33.9,2c11,2.9,20.5,8.8,28.4,17.7c7.4,8.9,12.5,19,15.4,30.3S1444.8,111.1,1445.9,122.2z M1398.6,271.8
		c12.6-20,22.7-41.4,30.3-64.2c7.6-22.8,11.1-46.1,10.6-69.7c-0.5-11-1.8-22.4-3.9-34.3c-2.1-11.8-6.1-22.4-11.8-31.9
		c-6.3-10.5-14.6-17.7-24.8-21.7c-10.2-3.9-21.1-4.9-32.7-2.8c-22.1,3.2-42.9,11.3-62.6,24.4s-37.7,27-54,41.7
		c-17.3,15.2-33.6,31.8-48.8,49.6c-15.2,17.9-29.7,36.5-43.3,55.9c-13.7,20-26.4,40.6-38.2,61.8c-11.8,21.3-23,42.9-33.5,65
		c-4.7,9.5-9.5,18.9-14.2,28.4c-4.7,9.5-9.2,18.9-13.4,28.4c18.9,6.8,38.3,11.4,58.3,13.8c20,2.4,39.1,2.5,57.5,0.4
		c22.6-2.1,44.8-7.2,66.6-15.4c21.8-8.1,42.4-18.6,61.8-31.5c19.4-12.9,37.3-27.7,53.6-44.5C1372.3,308.6,1386.5,290.7,1398.6,271.8
		z"/>
	<path class="st0" d="M1161.7,783.6l-17.5-18c-8.9-7.9-18.1-15.2-27.6-22c-9.5-6.8-19.2-13.4-29.1-19.7h-0.8
		c-2.1,4.2-3.9,7.3-5.5,9.5c-12.1,21.5-23.9,42.9-35.4,64.2c-11.6,21.3-24.1,41.9-37.8,61.8c-13.1,19.4-27.2,38.1-42.1,55.9
		c-15,17.8-31.6,33.9-50,48c-18.9,14.2-39.1,25.6-60.6,34.3c-21.5,8.7-44.1,14.6-67.7,17.7c-23.6,2.6-47.3,2-70.9-2
		c-23.6-3.9-45.2-13.3-64.6-28c-17.8-13.6-31.6-31.2-41.3-52.8c-9.7-21.5-15.1-43.3-16.2-65.4c-1.6-25.2,3-47.8,13.8-67.7
		c10.8-20,24.8-37.5,42.1-52.8c17.3-15.2,36.9-28,58.7-38.2c21.8-10.2,43.2-18.5,64.2-24.8c47.8-13.7,96-19.3,144.5-16.9
		c48.6,2.4,95.4,14,140.6,35.1c2.6,1.6,5.3,3,7.9,4.3c2.6,1.3,5.2,2.5,7.9,3.5c7.9-15.2,16-30.5,24.4-45.7
		c8.4-15.2,16.5-30.4,24.4-45.7l34.7-67c-1.1,1.1-1.6,1.8-1.6,2.4c-6.3,8.4-12.6,16.5-18.9,24.4c-6.3,7.9-13.1,15.5-20.5,22.8
		c-6.8,7.4-14.2,14.6-22,21.7c-7.9,7.1-16.6,11.9-26,14.6c-11.6,3.2-19,1.2-22.5-5.9c-3.4-7.1-4.6-16.1-3.5-27.2
		c1.1-11,3.3-22.1,6.7-33.1c3.4-11,5.9-18.9,7.5-23.6c6.8-19.4,15.1-39.1,24.8-59.1c9.7-20,22.7-36.8,39-50.4
		c1.1-1.1,2.4-1.2,3.9-0.4c1.6,0.8,2.1,2,1.6,3.5c-3.2,16.3-8.7,31.9-16.6,46.9c-7.9,15-15.7,29.5-23.6,43.7l-24.4,47.2
		c-3.7,8.9-6.6,17.1-8.7,24.4c-1,3.7-1.8,8.2-2.4,13.4c-0.5,5.3,0.5,9.2,3.2,11.8c3.7,4.2,8.5,5.1,14.6,2.8c6-2.4,10.9-4.9,14.6-7.5
		c8.4-5.2,16.5-11.8,24.4-19.7c8.4-7.9,16.1-16.2,23.2-24.8c7.1-8.7,14-17.4,20.9-26.4l19.7-27.6c7.9-13.6,15.9-27.3,24-41
		c8.1-13.6,16.7-26.8,25.6-39.4l3.1-3.9l0.8-0.8c1.6-1.6,2.9-2.1,3.9-1.6c1,0,1.3,1.6,0.8,4.7h0.8c0,0.5-0.3,0.8-0.8,0.8
		c-0.5,3.7-1.8,8.2-3.9,13.4c-2.1,5.2-4.3,10.6-6.7,16.1s-4.6,10.4-6.7,14.6c-2.1,4.2-3.4,7.1-3.9,8.7
		c-5.3,11.6-10.8,22.8-16.5,33.9c-5.8,11-11.6,22.1-17.3,33.1c-7.4,14.7-14.9,29.1-22.4,43.3c-7.6,14.2-15.4,28.4-23.2,42.5
		c-6.3,11.5-12.7,23-19.3,34.3c-6.6,11.3-13,23-19.3,35c17.3,10.5,33.9,22.2,49.6,35.1c15.7,12.9,10.5,7.9,22.9,20.9L1161.7,783.6z
		 M1071,714.4c-35.7-18.9-74-32-115-39.4c-24.1-4.2-48.3-5.8-72.5-4.7c-24.1,1-48.3,3.9-72.4,8.6c-23.6,4.7-46.6,11.2-68.9,19.3
		c-22.3,8.1-43.5,18.8-63.4,31.9c-18.4,12.1-34.9,27-49.6,44.9c-14.7,17.8-24.1,38.1-28.4,60.6c-4.2,22-2.9,44.8,3.9,68.1
		c6.8,23.4,17.9,43.4,33.1,60.3c16.3,18.4,35.8,31.1,58.7,38.2c22.8,7.1,46.3,9.8,70.5,8.3c24.2-1.6,47.9-6.6,71.3-15
		c23.4-8.4,44-19.2,61.8-32.3c19.4-14.2,37-30.6,52.8-49.2c15.8-18.6,30.1-38.2,42.9-58.7c12.9-20.5,24.8-41.6,35.8-63.4
		c11-21.8,22-43.2,33.1-64.2L1071,714.4z"/>
</g>
<g>
	<path class="st0" d="M1362.9,908.3c-16.8,5.8-34.7,8.7-53.6,8.7c-18.9,0-36.8-2.9-53.6-8.7c-22-7.4-40.8-19.4-56.3-36.2
		c-15.5-16.8-26.7-36.2-33.5-58.3c-7.3-22.6-9.3-45.2-5.9-67.7c3.4-22.6,11.7-43.8,24.8-63.8c6.3-8.9,13.5-17.2,21.7-24.8
		c8.1-7.6,17.1-14.2,26.8-19.7c9.7-5.5,20-9.5,30.7-11.8c10.8-2.4,21.7-2.5,32.7-0.4c8.9,2.1,18.6,5.8,29.1,11
		c0.5,0.5,2,1.6,4.3,3.2c2.4,1.6,4.7,3.4,7.1,5.5c2.4,2.1,4.1,4.1,5.1,5.9c1,1.8,0.5,3-1.6,3.5c-2.1,0.5-3.9,0-5.5-1.6
		c-1.6-1.6-2.9-2.9-3.9-3.9c-2.1-1.6-4.1-3.2-5.9-4.7c-1.8-1.6-4.1-2.9-6.7-3.9c-5.2-2.6-10.6-4.9-16.1-6.7
		c-5.5-1.8-11.2-3-16.9-3.5c-11-1-21.8,0.1-32.3,3.5c-10.5,3.4-20.2,8.3-29.1,14.6c-8.9,6.3-17.1,13.7-24.4,22
		c-7.4,8.4-13.7,17.3-18.9,26.8c-11.6,21-17.6,43.1-18.1,66.2c-0.5,23.1,4.2,45.7,14.2,67.7c10,21.5,24.1,38.8,42.5,52
		c18.4,13.1,39.4,21.5,63,25.2c44.6,6.3,84.3-4.5,118.9-32.3c17.3-14.7,31.5-32.2,42.5-52.4c11-20.2,17.3-41.6,18.9-64.2
		c1.6-22.6-1.5-43.3-9.1-62.2c-7.6-18.9-17.1-37.1-28.4-54.7c-11.3-17.6-23.1-35.2-35.4-52.8c-12.3-17.6-21.9-36.4-28.7-56.3
		c-11-7.3-20.9-15.9-29.5-25.6c-8.7-9.7-15.1-20.6-19.3-32.7c-4.2-12.1-6.8-24.8-7.9-38.2c-1.1-13.4-0.3-26.4,2.4-39
		c1.1-5.8,2.8-11.3,5.1-16.5c2.4-5.2,4.9-10.5,7.5-15.7c1-1.6,2.4-3.7,3.9-6.3c1.6-2.6,3.4-4.5,5.5-5.5c1-2.1,2.5-2.4,4.3-0.8
		c1.8,1.6,2,3.4,0.4,5.5c-15.2,16.8-23.2,37.3-24,61.4c-0.8,24.2,3.5,46.2,13,66.2c7.9,16.3,20.2,29.9,37,40.9l-2.4-7.1
		c-5.8-21.5-7.6-43.6-5.5-66.2c2.1-22.6,7.3-44.4,15.7-65.4c8.4-21,19.4-40.7,33.1-59.1c13.6-18.4,29.1-34.4,46.5-48
		c17.9-13.6,37.7-23.7,59.5-30.3c21.8-6.6,44-7.5,66.5-2.8c20.5,4.2,39,12.7,55.5,25.6c16.5,12.9,27.7,29.5,33.5,50
		c7.3,23.1,7.9,46.6,1.6,70.5c-6.3,23.9-15.8,45.8-28.4,65.8c-10.5,16.3-23.4,30.6-38.6,42.9c-15.2,12.3-31.5,23-48.8,31.9
		c-21,10.5-43.2,17.9-66.6,22c-23.4,4.2-46.6,3.4-69.7-2.4c-3.2-0.5-6.2-1.2-9.1-2c-2.9-0.8-5.9-1.7-9.1-2.8
		c2.6,4.2,5.1,8.3,7.5,12.2c2.4,3.9,4.9,8,7.5,12.2c6.3,10.5,13,20.7,20.1,30.7c7.1,10,13.8,20.1,20.1,30.3
		c6.3,10.2,11.9,20.7,16.9,31.5c5,10.8,9.1,22.2,12.2,34.3c5.2,21.5,6.2,43.1,2.8,64.6c-3.4,21.5-10.5,41.6-21.3,60.3
		c-10.8,18.6-24.4,35.2-41,49.6C1401.9,890.1,1383.4,901,1362.9,908.3z M1371.6,451.5c-1.1,16.8,0.1,32.8,3.5,48
		c3.4,15.2,8.8,30.2,16.2,44.9c7.3,2.6,15.1,4.9,23.2,6.7c8.1,1.8,15.9,3,23.2,3.5c21.5,1.6,42.9-0.4,64.2-5.9
		c21.3-5.5,41.4-13.9,60.3-25.2c18.9-11.3,35.8-25.1,50.8-41.4c15-16.3,26.7-34.4,35.1-54.3c4.2-10,7.7-20.7,10.6-32.3
		c2.9-11.5,4.3-23.1,4.3-34.7c0-11.5-1.6-23-4.7-34.3c-3.2-11.3-8.4-21.7-15.8-31.1c-12.1-16.3-28.1-28-48-35.1
		c-20-7.1-39.9-9.6-59.9-7.5c-23.6,2.6-45,10.2-64.2,22.8c-19.2,12.6-35.8,28.4-50,47.3c-14.2,18.9-25.5,39.6-33.9,62.2
		C1378.1,407.9,1373.2,430,1371.6,451.5z"/>
	<path class="st0" d="M1813.4,590.1c1-1,2.5-1.2,4.3-0.4c1.8,0.8,2.5,2,2,3.5c0,2.1-0.7,4.1-2,5.9c-1.3,1.8-2.5,3.5-3.5,5.1
		l-10.2,15c-6.8,10.5-13.8,20.5-20.9,29.9c-7.1,9.4-14.3,18.9-21.7,28.4c-7.4,8.9-14.8,17.9-22.4,26.8c-7.6,8.9-16.2,17.1-25.6,24.4
		c-3.2,2.1-6.6,4.1-10.2,5.9c-3.7,1.8-7.5,3.2-11.4,3.9c-3.9,0.8-7.6,0.5-11-0.8c-3.4-1.3-6.4-4.1-9.1-8.3
		c-2.6-4.7-4.3-9.9-5.1-15.4c-0.8-5.5-0.9-11.2-0.4-16.9c0.5-5.8,1.3-11.6,2.4-17.3c1.1-5.8,2.1-11,3.2-15.7l6.3-22.1l-18.9,26.8
		c-6.8,9.5-13.8,18.8-20.9,28c-7.1,9.2-14.6,18.3-22.4,27.2c-2.6,3.2-6,6.7-10.2,10.6c-4.2,3.9-8.7,7.6-13.4,11
		c-4.7,3.4-9.6,5.8-14.6,7.1c-5,1.3-9.8,0.6-14.6-2c-7.3-4.2-11.3-10.9-11.8-20.1c-0.5-9.2-0.2-17.4,0.8-24.8
		c1.6-12.1,4.1-23.7,7.5-35.1c3.4-11.3,7.2-22.4,11.4-33.5c12.6-34.7,28.4-67.7,47.2-99.2c4.2-7.4,8.5-14.4,13-21.3
		c4.4-6.8,9-13.9,13.8-21.3l15-20.5c1.1-1.1,2-2.1,2.8-3.2c0.8-1.1,1.7-1.8,2.8-2.4c1.6-0.5,3-0.1,4.3,1.2c1.3,1.3,1.7,2.8,1.2,4.3
		c-8.9,21.5-18.5,42.5-28.7,63c-10.2,20.5-20.6,40.9-31.1,61.4c-5.8,11-11.3,21.8-16.6,32.3c-5.2,10.5-10.2,21.3-15,32.3
		c-3.2,7.3-6.2,14.7-9.1,22c-2.9,7.4-5.1,14.7-6.7,22c-1,5.3-2,11.4-2.8,18.5c-0.8,7.1,1.2,12.7,5.9,16.9c3.2,2.1,6.9,2.4,11.4,0.8
		c4.5-1.6,8.9-4.1,13.4-7.5c4.5-3.4,8.5-7.1,12.2-11c3.7-3.9,6.6-6.9,8.7-9.1c8.9-8.9,17.1-18.2,24.4-28
		c7.4-9.7,14.7-19.8,22.1-30.3c9.4-12.6,18.1-25.2,26-37.8c5.8-15.2,12.9-29.8,21.3-43.7c8.4-13.9,17.9-26.7,28.4-38.2
		c2.6-1.6,4.5-2.1,5.5-1.6c2.6,1.1,3.2,3.7,1.6,7.9c-1.6,4.2-2.9,7.1-3.9,8.7c-1.1,4.2-2.4,8.2-3.9,11.8c-1.6,3.7-3.2,7.6-4.7,11.8
		c-3.2,8.9-6.6,17.6-10.2,26c-3.7,8.4-7.4,17.1-11,26c-3.7,7.4-7.2,15-10.6,22.8c-3.4,7.9-6.7,15.7-9.8,23.6
		c-2.6,6.8-5.5,14.9-8.7,24c-3.2,9.2-2.9,17.5,0.8,24.8c2.6,5.3,6.4,7.5,11.4,6.7c5-0.8,10.6-3.3,16.9-7.5s12.9-9.7,19.7-16.6
		c6.8-6.8,13.1-13.5,18.9-20.1c5.8-6.6,10.8-12.5,15-17.7c4.2-5.2,7.1-8.9,8.7-11c6.8-9.4,13.4-18.9,19.7-28.4
		c6.3-9.4,12.3-19.4,18.1-29.9c1-1.6,2-3.4,2.8-5.5C1811.5,592.8,1812.4,591.2,1813.4,590.1z"/>
	<path class="st0" d="M1937.1,906.9 M1936.4,912.3c-2.9,5.8-5.9,11.4-9.1,16.9c-3.2,5.5-5.2,8.8-6.3,9.9
		c-6.8,8.9-14.6,16.8-23.2,23.6c-8.7,6.8-17.7,13.1-27.2,18.9c-9.5,5.8-19.7,10.4-30.7,13.8c-11,3.4-22.3,4.6-33.9,3.5
		c-11.6-1.1-20.3-5.7-26.4-13.8s-9.6-18-10.6-29.5c-1-11.6-0.1-23.2,2.8-35.1c2.9-11.8,6.4-23,10.6-33.5c4.2-11,8.7-21.9,13.4-32.7
		c4.7-10.8,10-21.4,15.8-31.9c11-23.1,22.3-45.7,33.9-67.7c11.5-22,23.1-44.4,34.7-67c5.8-11.5,11.3-22.8,16.5-33.9
		c5.2-11,10.8-22.3,16.5-33.9l14.2-31.5c2.1-4.7,4.1-9.6,5.9-14.6c1.8-5,2.8-10.4,2.8-16.1c0-5.8-2.4-8.8-7.1-9.1
		c-4.7-0.3-10.1,0.8-16.2,3.2c-6,2.4-11.8,5.1-17.3,8.3c-5.5,3.2-9.3,5.5-11.4,7.1c-10,7.4-19.3,15.5-28,24.4
		c-8.7,8.9-16.9,18.1-24.8,27.6c-7.4,8.9-14.2,17.7-20.5,26.4s-12.6,17.5-18.9,26.4c-5.8,10.5-11.7,20.7-17.7,30.7
		c-6,10-12.5,20-19.3,29.9c-1,1.1-1.7,2-2,2.8c-0.3,0.8-0.9,1.5-2,2c0,0.5-0.3,1.1-0.8,1.6c-1.6,1.6-3.2,2.1-4.7,1.6
		c-0.5,0-0.8-1.6-0.8-4.7v-0.8c1.1-5.8,3.9-13.1,8.7-22.1c4.7-8.9,7.6-14.7,8.7-17.3c4.2-8.9,8.3-18,12.2-27.2
		c3.9-9.2,8-18.5,12.2-28l26-55.1c4.2-8.4,8.5-16.7,13-24.8c4.5-8.1,10.1-15.6,16.9-22.4c1-1.1,2.4-1.2,3.9-0.4
		c1.6,0.8,2.4,2,2.4,3.5c-0.5,8.9-2.2,17.6-5.1,26c-2.9,8.4-6.4,16.6-10.6,24.4c-4.2,8.4-8.3,16.7-12.2,24.8
		c-3.9,8.2-8,16.4-12.2,24.8l-2.4,4.7l21.3-28.4c7.3-8.9,15.1-17.9,23.2-26.8c8.1-8.9,16.7-17,25.6-24.4c3.7-3.2,7.9-6.6,12.6-10.2
		c4.7-3.7,9.8-6.9,15.3-9.8s11.2-5,16.9-6.3c5.8-1.3,11-1.2,15.8,0.4c5.2,1.6,8.8,4.9,10.6,9.8c1.8,5,2.6,10.5,2.4,16.5
		c-0.3,6.1-1.1,12.1-2.4,18.1c-1.3,6-2.5,10.9-3.5,14.6c-3.2,11.6-7,22.8-11.4,33.9s-9.6,21.8-15.3,32.3
		c-10.5,22-21.9,43.8-34.3,65.4c-12.3,21.5-24.8,43.1-37.4,64.6c-12.6,21.5-25.2,43.2-37.8,65c-12.6,21.8-21.8,44.8-27.6,68.9
		c-1.1,4.7-1.8,10-2.4,15.7c-0.5,5.8-0.4,11.4,0.4,16.9c0.8,5.5,2.4,10.6,4.7,15.4c2.4,4.7,6.2,8.4,11.4,11
		c9.4,5.8,20.2,7.1,32.3,3.9s22.8-6.8,32.3-11c20-9.5,37.3-22.3,52-38.6c7.9-8.4,14.5-17.1,18.8-26"/>
	<path class="st0" d="M2197.8,474.4c-3.2,10.5-6.6,21-10.2,31.5c-3.7,10.5-7.6,21-11.8,31.5c-8.4,20.5-17.1,40.6-26,60.3
		c-8.9,19.7-19.4,38.7-31.5,57.1c-6.3,9.5-12.9,19.2-19.7,29.1c-6.8,10-14.5,19.3-22.8,28c-8.4,8.7-17.6,16.1-27.6,22.4
		c-10,6.3-20.7,10.8-32.3,13.4c-11,2.6-21.1,1.7-30.3-2.8c-9.2-4.5-16.7-11.4-22.4-20.9c-3.2-5.8-5.6-11.8-7.5-18.1
		c-1.8-6.3-3.3-12.6-4.3-18.9c-1.6-22.1,2.9-43.8,13.4-65.4c10.5-21.5,24.1-39.4,41-53.6c7.9-6.8,16.7-12.5,26.4-16.9
		c9.7-4.5,20.1-6.4,31.1-5.9c8.9,0.5,16.9,2.9,24,7.1c7.1,4.2,12.5,10.8,16.1,19.7c4.2,10.5,6.7,21.5,7.5,33.1
		c0.8,11.6,0.7,22.8-0.4,33.9c-0.5,1.1-0.8,2.9-0.8,5.5c13.6-25.2,25.3-51.3,35.1-78.4c9.7-27,18.8-54.2,27.2-81.5
		c-18.9,6.3-37.8,11.6-56.7,15.8c-20.5,4.2-42.4,6.4-65.8,6.7c-23.4,0.3-46-2.4-67.7-7.9c-21.8-5.5-41.9-14.3-60.2-26.4
		c-18.4-12.1-33.4-28.4-44.9-48.8c-11-19.9-16.7-41.6-16.9-65c-0.3-23.4,3.3-45.5,10.6-66.6c7.4-21.5,18.3-40.7,32.7-57.5
		c14.4-16.8,31.6-30.2,51.6-40.2c22-10.5,44.9-16.1,68.5-16.9c23.6-0.8,46.7,2.5,69.3,9.9c22,7.4,42.5,17.7,61.4,31.1
		c18.9,13.4,33.6,30.3,44.1,50.8c11,21.5,17.3,44.2,18.9,68.1c1.6,23.9,0.5,47.6-3.2,71.3c-1.6,10-3.5,19.7-5.9,29.1
		c-2.4,9.5-4.9,19.2-7.5,29.1l19.7-9.4c20.5-11,40.2-23.8,59.1-38.2c18.9-14.4,36.2-30.3,52-47.6c6.8-7.9,13.9-16.6,21.3-26
		l9.5-13.4c1.6-2.6,3.2-5.5,4.7-8.7c1.6-3.2,3.4-5.5,5.5-7.1c1.1-1.1,2.4-1.1,3.9,0c1.6,1.1,2.4,2.4,2.4,3.9
		c-0.5,2.1-1.5,4.1-2.8,5.9c-1.3,1.8-2.5,3.5-3.5,5.1c-3.7,4.7-7.2,9.6-10.6,14.6c-3.4,5-7,9.6-10.6,13.8
		C2309.1,410,2258.1,448.1,2197.8,474.4z M2174.1,478.3c0-1,0.1-1.7,0.4-2c0.3-0.3,0.4-0.9,0.4-2c7.3-23.6,13.3-47.4,17.7-71.3
		c4.5-23.9,5.9-48.2,4.3-72.9c-1.6-23.6-7.8-45-18.5-64.2c-10.8-19.2-26.1-35.3-46.1-48.5c-20-13.1-41.6-22.4-65-28
		c-23.4-5.5-46.9-6.2-70.5-2c-22,4.2-42.1,12.6-60.3,25.2c-18.1,12.6-33.2,28.6-45.3,48c-11.6,18.4-19.6,39.3-24,62.6
		c-4.5,23.4-3.8,46.1,2,68.1c5.8,22.6,16.7,41.6,32.7,57.1c16,15.5,34.5,27.7,55.5,36.6c34.7,13.7,70.7,19.2,108.3,16.5
		C2103.4,499.3,2139.5,491.4,2174.1,478.3z M2100.1,661c3.2-8.9,4.9-18.3,5.1-28c0.3-9.7-0.1-18.8-1.2-27.2
		c-1.1-7.9-2.8-16.9-5.1-27.2c-2.4-10.2-8-17.2-16.9-20.9c-11.6-4.7-22.2-5.2-31.9-1.6c-9.7,3.7-18.5,9.7-26.4,18.1
		c-7.9,8.4-15,17.7-21.3,28c-6.3,10.2-11.3,19.6-15,28c-4.7,10-9.2,20.4-13.4,31.1c-4.2,10.8-6.3,21.7-6.3,32.7
		c0,7.4,1.3,15.1,3.9,23.2c2.6,8.2,7.3,14.3,14.2,18.5c8.9,5.8,19,6.8,30.3,3.2c11.3-3.7,20.9-8.1,28.7-13.4
		c9.5-6.8,17.9-14.3,25.2-22.4c7.3-8.1,14.2-16.9,20.5-26.4L2100.1,661z"/>
	<path class="st0" d="M2402.5,630.3c1,2.6,0.1,5.3-2.8,7.9c-2.9,2.6-5.1,4.7-6.7,6.3l-18.9,20.5c-5.8,6.3-11.4,12.6-16.9,18.9
		c-5.5,6.3-11.2,12.3-16.9,18.1c-7.3,7.9-15.2,16-23.6,24.4c-8.4,8.4-17.6,14.7-27.6,18.9c-9.4,4.2-16.3,3.8-20.5-1.2
		c-4.2-5-6.8-11.7-7.9-20.1c-1.1-8.4-1.1-17.1,0-26s2.1-15.8,3.2-20.5c1.1-3.2,1.6-5.2,1.6-6.3l-2.4,3.2
		c-7.3,8.9-14.8,17.7-22.4,26.4c-7.6,8.7-15.9,16.7-24.8,24c-3.7,3.2-7.6,6-11.8,8.7c-4.2,2.6-8.5,4.7-13,6.3
		c-4.5,1.6-8.9,2-13.4,1.2c-4.5-0.8-8.8-3.3-13-7.5c-7.9-7.9-11.3-18.1-10.2-30.7c1.1-12.6,2.9-23.6,5.5-33.1
		c5.8-21.5,15-41.5,27.6-59.9c5.8-7.9,12.5-15.9,20.1-24c7.6-8.1,15.9-15.5,24.8-22s18.4-11.7,28.4-15.4c10-3.7,20.2-5,30.7-3.9
		c7.9,1.1,15.2,3.4,22,7.1c6.8,3.7,12.9,8.4,18.1,14.2c2.1,2.1,4.3,4.5,6.7,7.1c2.4,2.6,4.1,5.3,5.1,7.9c2.1,2.6,1.8,4.7-0.8,6.3
		c-2.6,1.6-4.7,1.1-6.3-1.6c-5.8-8.9-12.9-16.8-21.3-23.6c-8.4-6.8-18.1-9.7-29.1-8.7c-11,1.1-21.1,5.1-30.3,12.2
		c-9.2,7.1-17.5,14.6-24.8,22.4c-11.6,13.7-21.8,29.1-30.7,46.5c-5.8,10.5-11.3,21.3-16.5,32.3c-5.2,11-9.2,22.6-11.8,34.7
		c-1,3.1-1.6,6.7-1.6,10.6c0,3.9,0.7,7.6,2,11c1.3,3.4,3.2,6.2,5.5,8.3c2.4,2.1,5.9,2.6,10.6,1.6c10-2.6,19.2-7.9,27.6-15.8
		c8.4-7.9,16-15.5,22.8-22.8c5.8-6.3,11.4-12.7,16.9-19.3c5.5-6.6,10.9-13.3,16.1-20.1c3.2-7.9,7.1-15,11.8-21.3
		c1.1-2.1,2.5-4.3,4.3-6.7c1.8-2.4,3.8-4.1,5.9-5.1c3.2-4.7,6-6.8,8.7-6.3c2.6,0.5,3.7,1.8,3.2,3.9c-0.5,2.1-1.8,4.5-3.9,7.1v2.4
		c-2.1,10-4.6,19.8-7.5,29.5c-2.9,9.7-5.9,19.3-9.1,28.7c-0.5,1.1-1.8,4.2-3.9,9.4c-2.1,5.3-3.9,10.9-5.5,16.9
		c-1.6,6-2.4,11.4-2.4,16.2c0,4.7,1.6,7.4,4.7,7.9c4.7,0.5,9.6-0.9,14.6-4.3c5-3.4,9.1-6.4,12.2-9c9.5-6.8,18.1-14.7,26-23.6
		c8.9-8.9,17.4-17.8,25.6-26.8c8.1-8.9,15.9-18.4,23.2-28.4c0.5-0.5,1.8-2.2,3.9-5.1c2.1-2.9,4.3-5.5,6.7-7.9
		c2.4-2.4,4.7-3.9,7.1-4.7C2399.8,626.8,2401.5,627.7,2402.5,630.3z"/>
	<path class="st0" d="M2414.4,830.3c17.3,10.5,33.9,22.2,49.6,35.1c15.8,12.9,29.9,27.2,42.5,42.9c1.6,1.6,1.5,3-0.4,4.3
		c-1.8,1.3-3.3,1.2-4.3-0.4c-1.6-1.1-2.9-2.5-3.9-4.3c-1.1-1.8-2.1-3.3-3.2-4.3l-26-26.8c-8.9-7.9-18.1-15.2-27.6-22
		c-9.4-6.8-19.2-13.4-29.1-19.7h-0.8c-2.1,4.2-3.9,7.3-5.5,9.5c-12.1,21.5-23.9,42.9-35.4,64.2c-11.5,21.3-24.1,41.9-37.8,61.8
		c-13.1,19.4-27.2,38.1-42.1,55.9c-15,17.8-31.6,33.9-50,48c-18.9,14.2-39.1,25.6-60.6,34.3c-21.5,8.7-44.1,14.6-67.7,17.7
		c-23.6,2.6-47.2,2-70.9-2c-23.6-3.9-45.2-13.3-64.6-28c-17.9-13.6-31.6-31.2-41.4-52.8c-9.7-21.5-15.1-43.3-16.1-65.4
		c-1.6-25.2,3-47.8,13.8-67.7c10.8-20,24.8-37.5,42.1-52.8c17.3-15.2,36.9-28,58.7-38.2c21.8-10.2,43.2-18.5,64.2-24.8
		c47.8-13.7,96-19.3,144.5-16.9s95.4,14,140.6,35.1c2.6,1.6,5.2,3,7.9,4.3c2.6,1.3,5.2,2.5,7.9,3.5c7.9-15.2,16-30.5,24.4-45.7
		c8.4-15.2,16.5-30.4,24.4-45.7l34.7-67c-1.1,1.1-1.6,1.8-1.6,2.4c-6.3,8.4-12.6,16.5-18.9,24.4c-6.3,7.9-13.1,15.5-20.5,22.8
		c-6.8,7.4-14.2,14.6-22,21.7c-7.9,7.1-16.5,11.9-26,14.6c-11.5,3.2-19,1.2-22.4-5.9c-3.4-7.1-4.6-16.1-3.5-27.2
		c1.1-11,3.3-22.1,6.7-33.1s5.9-18.9,7.5-23.6c6.8-19.4,15.1-39.1,24.8-59.1c9.7-20,22.7-36.8,39-50.4c1-1.1,2.4-1.2,3.9-0.4
		c1.6,0.8,2.1,2,1.6,3.5c-3.2,16.3-8.7,31.9-16.5,46.9c-7.9,15-15.8,29.5-23.6,43.7l-24.4,47.2c-3.7,8.9-6.6,17.1-8.7,24.4
		c-1.1,3.7-1.8,8.2-2.4,13.4c-0.5,5.3,0.5,9.2,3.2,11.8c3.7,4.2,8.5,5.1,14.6,2.8c6-2.4,10.9-4.9,14.6-7.5
		c8.4-5.2,16.5-11.8,24.4-19.7c8.4-7.9,16.1-16.2,23.2-24.8c7.1-8.7,14-17.4,20.9-26.4l19.7-27.6c7.9-13.6,15.9-27.3,24-41
		c8.1-13.6,16.7-26.8,25.6-39.4l3.2-3.9l0.8-0.8c1.6-1.6,2.9-2.1,3.9-1.6c1.1,0,1.3,1.6,0.8,4.7h0.8c0,0.5-0.3,0.8-0.8,0.8
		c-0.5,3.7-1.8,8.2-3.9,13.4c-2.1,5.2-4.3,10.6-6.7,16.1c-2.4,5.5-4.6,10.4-6.7,14.6c-2.1,4.2-3.4,7.1-3.9,8.7
		c-5.2,11.6-10.8,22.8-16.5,33.9c-5.8,11-11.6,22.1-17.3,33.1c-7.4,14.7-14.8,29.1-22.4,43.3c-7.6,14.2-15.4,28.4-23.2,42.5
		c-6.3,11.5-12.7,23-19.3,34.3C2427.1,806.6,2420.7,818.3,2414.4,830.3z M2395.5,825.6c-35.7-18.9-74-32-115-39.4
		c-24.1-4.2-48.3-5.8-72.4-4.7c-24.1,1-48.3,3.9-72.5,8.6c-23.6,4.7-46.6,11.2-68.9,19.3c-22.3,8.1-43.4,18.8-63.4,31.9
		c-18.4,12.1-34.9,27-49.6,44.9c-14.7,17.8-24.1,38.1-28.4,60.6c-4.2,22-2.9,44.8,3.9,68.1c6.8,23.4,17.9,43.4,33.1,60.3
		c16.3,18.4,35.8,31.1,58.7,38.2c22.8,7.1,46.3,9.8,70.5,8.3c24.2-1.6,47.9-6.6,71.3-15c23.4-8.4,44-19.2,61.8-32.3
		c19.4-14.2,37-30.6,52.8-49.2c15.7-18.6,30.1-38.2,42.9-58.7c12.9-20.5,24.8-41.6,35.8-63.4c11-21.8,22-43.2,33.1-64.2
		L2395.5,825.6z"/>
</g>
</svg>
